<?xml version="1.0" encoding="UTF-8" standalone="no"?>
<!-- Created with Inkscape (http://www.inkscape.org/) -->

<svg
   width="500mm"
   height="750mm"
   viewBox="0 0 500 750"
   version="1.1"
   id="svg1"
   xml:space="preserve"
   inkscape:version="1.4 (86a8ad7, 2024-10-11)"
   sodipodi:docname="moviefallback.svg"
   xmlns:inkscape="http://www.inkscape.org/namespaces/inkscape"
   xmlns:sodipodi="http://sodipodi.sourceforge.net/DTD/sodipodi-0.dtd"
   xmlns="http://www.w3.org/2000/svg"
   xmlns:svg="http://www.w3.org/2000/svg"><sodipodi:namedview
     id="namedview1"
     pagecolor="#505050"
     bordercolor="#ffffff"
     borderopacity="1"
     inkscape:showpageshadow="0"
     inkscape:pageopacity="0"
     inkscape:pagecheckerboard="1"
     inkscape:deskcolor="#505050"
     inkscape:document-units="mm"
     inkscape:zoom="0.12806012"
     inkscape:cx="648.1331"
     inkscape:cy="1464.1561"
     inkscape:window-width="1366"
     inkscape:window-height="705"
     inkscape:window-x="-8"
     inkscape:window-y="-8"
     inkscape:window-maximized="1"
     inkscape:current-layer="layer1" /><defs
     id="defs1" /><g
     inkscape:label="Слой 1"
     inkscape:groupmode="layer"
     id="layer1"><rect
       style="fill:#191919;stroke:#000000;stroke-width:5.92938;stroke-linejoin:round;fill-opacity:1"
       id="rect1"
       width="494.07062"
       height="744.07062"
       x="2.9646878"
       y="2.9646878" /><path
       fill="#ffffff"
       d="m 359.53487,260.80928 -47.54456,8.98799 33.14827,40.79042 23.83287,-4.60897 z m -83.1121,15.67127 -23.83286,4.49356 33.26898,40.67545 23.71169,-4.49356 z m -59.27969,11.06187 -23.83287,4.72438 33.26898,40.67501 23.71216,-4.49356 z m -59.40087,11.52264 -11.85584,2.19059 a 24.195762,23.045561 0 0 0 -18.99341,27.0785 l 4.71783,22.58451 59.27969,-11.17685 z m -26.13142,51.85229 v 115.22809 a 24.195762,23.045561 0 0 0 24.19591,23.04527 h 193.56595 c 13.42876,0 24.19591,-10.25487 24.19591,-23.04527 V 350.91735 Z"
       id="path1"
       style="fill:#b3b3b3;stroke-width:11.8068" /></g></svg>
